<svg viewBox="0 0 220 200" xmlns="http://www.w3.org/2000/svg"><rect fill="#ff6506" height="115.52" rx="13.53" width="143.67" x="29.08" y="41.91"/><path d="m187.67 99.67-15.18-11.53v23.06z" fill="#ff6506"/><g fill="#fff"><path d="m62.46 77.07h3.29l4.75 11.99h-3.74l-.58-1.69h-4.27l-.56 1.69h-3.47l4.57-11.99zm2.79 7.61-.65-1.89c-.1-.26-.18-.52-.24-.76-.07-.24-.12-.46-.16-.65s-.08-.35-.11-.47-.04-.19-.04-.22h-.04s-.02.1-.05.22l-.11.47c-.05.19-.11.41-.17.66-.07.25-.14.5-.22.75l-.63 1.89h2.43z"/><path d="m71.98 77.07h3.47l3.28 4.7c.42.61.75 1.12.99 1.54.24.41.37.64.4.67h.04s0-.1-.02-.23c-.01-.13-.02-.29-.03-.49s-.01-.41-.02-.65c0-.24 0-.48 0-.72v-4.82h3.1v11.99h-3.13l-3.67-5.17c-.44-.61-.77-1.08-.97-1.4l-.34-.59h-.04c0 .06 0 .26.03.61.02.35.03.75.03 1.21v5.35h-3.1v-11.99z"/><path d="m89.22 77.07h3.29l4.75 11.99h-3.74l-.58-1.69h-4.27l-.56 1.69h-3.47l4.57-11.99zm2.79 7.61-.65-1.89c-.1-.26-.18-.52-.24-.76-.07-.24-.12-.46-.16-.65s-.08-.35-.11-.47-.04-.19-.04-.22h-.04s-.02.1-.05.22l-.11.47c-.05.19-.11.41-.17.66-.07.25-.14.5-.22.75l-.63 1.89h2.43z"/><path d="m98.82 77.07h3.46v9.27h4.27v2.72h-7.72v-11.99z"/><path d="m108.7 77.07h3.46v11.99h-3.46z"/><path d="m114.55 86.88 4.64-7.02h-4.48v-2.79h8.68v2.16l-4.66 7.04h4.79v2.79h-8.96v-2.18z"/><path d="m128.84 77.07h3.29l4.75 11.99h-3.74l-.58-1.69h-4.27l-.56 1.69h-3.47l4.57-11.99zm2.79 7.61-.65-1.89c-.1-.26-.18-.52-.24-.76-.07-.24-.12-.46-.16-.65s-.08-.35-.11-.47-.04-.19-.04-.22h-.04s-.02.1-.05.22l-.11.47c-.05.19-.11.41-.17.66-.07.25-.14.5-.22.75l-.63 1.89h2.43z"/><path d="m68.39 110.88c-1.82 0-3.2-.4-4.11-1.21s-1.38-2.07-1.38-3.77v-7.22h3.44v6.98c0 .42.04.79.11 1.1s.19.57.35.76c.16.2.38.35.65.44.27.1.61.14 1.02.14.74 0 1.26-.2 1.55-.6s.43-.99.43-1.77v-7.06h3.15v6.86c0 1.78-.44 3.11-1.32 4s-2.18 1.34-3.88 1.34z"/><path d="m81.31 101.46h-3.22v-2.79h9.88v2.79h-3.22v9.2h-3.44z"/><path d="m89.55 98.67h3.46v11.99h-3.46z"/><path d="m95.73 114.53c-.58 0-1.04-.04-1.4-.12-.35-.08-.67-.17-.94-.26l.54-2.74c.08.04.22.08.4.13.19.05.36.07.53.07.53 0 .89-.11 1.1-.33.2-.22.31-.62.31-1.2v-11.41h3.46v11.86c0 .66-.1 1.24-.29 1.74s-.47.92-.82 1.25c-.35.34-.78.59-1.27.76s-1.03.25-1.62.25z"/><path d="m102.32 98.67h7.52v2.79h-4.14v1.8h3.65v2.59h-3.65v2.02h4.27v2.79h-7.65z"/><path d="m112.25 98.67h3.44v4.72l3.46-4.72h3.73l-4.09 5.49 4.19 6.5h-4l-3.29-5.17v5.17h-3.44z"/><path d="m129.73 110.88c-1.82 0-3.19-.4-4.11-1.21s-1.38-2.07-1.38-3.77v-7.22h3.44v6.98c0 .42.04.79.11 1.1s.19.57.35.76c.16.2.38.35.65.44.27.1.61.14 1.02.14.74 0 1.26-.2 1.55-.6s.43-.99.43-1.77v-7.06h3.15v6.86c0 1.78-.44 3.11-1.32 4s-2.17 1.34-3.88 1.34z"/></g><circle cx="101.82" cy="142.43" fill="#ff6506" r="20.84" stroke="#fff" stroke-miterlimit="10" stroke-width="2.2" transform="matrix(.16022575 -.9870804 .9870804 .16022575 -55.08 220.12)"/><path d="m97.17 154.85c-.37-.04-.7-.03-1-.1-.72-.17-1.23-.82-1.25-1.56-.01-.38 0-.75 0-1.13 0-1.03.72-1.75 1.76-1.76h.5c0-.25.02-.48-.01-.71-.01-.1-.13-.21-.23-.26-2.84-1.45-4.59-3.74-5.23-6.86-1.03-5 2.42-10.15 7.43-11.14.6-.12 1.21-.17 1.82-.21.53-.03.73.18.73.71v3.17c0 .6-.27.8-.86.67-.64-.14-1.25.22-1.39.82-.14.62.24 1.24.87 1.36.18.04.37.01.55-.03.54-.11.82.1.82.65v1.64h1.11c.06-.7.32-1.31.89-1.76.44-.34.93-.49 1.48-.47 1.17.04 1.98.87 2.19 2.25h2.53c.69 0 .87.16.83.86-.2 3.61-1.86 6.35-5.02 8.12-.51.29-.75.56-.56 1.18h.55c.91.03 1.63.73 1.65 1.64.01.39 0 .78 0 1.16-.02.97-.73 1.69-1.7 1.71-.17 0-.35 0-.56 0v1.54c0 1.78-1.2 2.98-2.99 2.98-.87 0-1.75.04-2.6-.07-1.32-.18-2.27-1.35-2.3-2.68-.01-.57 0-1.15 0-1.72zm6.77-4.57c0-.35.02-.68 0-1.01-.03-.42.15-.64.53-.81 1.78-.76 3.13-2 4.07-3.69.6-1.08.94-2.24 1.02-3.47-.05-.02-.07-.03-.09-.03-.87 0-1.74 0-2.61 0-.63 0-.84-.25-.7-.86.11-.5-.06-.97-.47-1.23-.37-.25-.9-.24-1.26.02-.39.27-.55.72-.44 1.21.14.6-.07.86-.7.86-.52 0-1.05 0-1.58 0v1.11c1.29.15 2.14.95 2.23 2.08.04.53-.09 1.03-.39 1.47-.44.64-1.09.93-1.84 1v3.35h2.24zm-11.36-9c.21.84.35 1.64.63 2.39.84 2.25 2.38 3.85 4.58 4.8.36.16.53.39.51.78-.02.34 0 .67 0 1.01h2.23s.02-.07.02-.09c0-1.26 0-2.51 0-3.77 0-.6.27-.8.85-.67.5.11.97-.06 1.23-.47.25-.37.24-.9-.02-1.26-.27-.39-.72-.55-1.21-.44-.6.14-.86-.07-.86-.7 0-.52 0-1.05 0-1.58h-1.11c-.16 1.31-.97 2.16-2.12 2.23-.53.03-1.02-.11-1.46-.42-.63-.44-.91-1.08-.97-1.82h-2.31zm7.96-9.01c-4.73.3-7.78 4.37-7.82 7.84.02 0 .04.02.07.02h2.61c.62 0 .82.26.68.87-.11.48.07.94.45 1.21.37.25.89.26 1.26 0 .39-.26.57-.73.47-1.2-.14-.64.05-.88.7-.88h1.56v-1.11c-1.29-.15-2.14-.96-2.22-2.09-.04-.53.09-1.03.4-1.47.44-.64 1.08-.93 1.84-.99zm.58 21.41h4.41c.46 0 .66-.21.67-.67 0-.29 0-.59 0-.88 0-.51-.2-.7-.71-.7-.79 0-1.57 0-2.36 0-2.13 0-4.25 0-6.38 0-.51 0-.7.2-.7.7v.81c0 .55.19.74.74.74h4.34zm-2.82 1.14v1.66c.01.97.73 1.69 1.7 1.71.75.01 1.5 0 2.25 0 .84-.01 1.55-.57 1.65-1.4.08-.64.02-1.3.02-1.96h-1.1v1.64c0 .36-.25.59-.57.59-.31 0-.53-.24-.55-.57 0-.14 0-.28 0-.42 0-.42 0-.83 0-1.24h-1.13v1.6c0 .31-.13.52-.42.61-.37.11-.7-.17-.7-.61 0-.54 0-1.07 0-1.61h-1.13z" fill="#fff"/><path d="m105.07 134.54c-1.44-.25-2.24-1.06-2.26-2.26-.01-1.23.77-2.05 2.26-2.33 0-.85 0-1.71 0-2.56 0-.62.18-.79.8-.78 4.74.07 8.86 3.87 9.29 8.57.03.32.05.63.06.95 0 .41-.22.63-.63.63-1.12 0-2.23 0-3.35 0-.46 0-.67-.29-.6-.75.03-.26.06-.55 0-.79-.17-.56-.8-.86-1.36-.69-.55.16-.89.73-.79 1.29.14.74-.02.93-.78.93-.65 0-1.29 0-1.94 0-.49 0-.69-.2-.69-.68 0-.52 0-1.03 0-1.54zm6.78 1.08h2.2c-.23-4.36-3.98-7.71-7.85-7.83v2.67c0 .63-.26.84-.86.7-.49-.11-.94.05-1.21.44-.27.38-.27.91 0 1.29.27.39.72.55 1.21.44.6-.14.86.07.86.7v1.58h1.11c.16-1.36 1.04-2.23 2.25-2.24 1.23 0 2.13.86 2.29 2.24z" fill="#fff"/><path d="m101.68 128.31v1.06c0 .38-.25.63-.58.62-.32 0-.54-.25-.55-.61 0-.72 0-1.43 0-2.15 0-.38.24-.63.57-.62.32 0 .54.25.55.61v1.09z" fill="#fff"/><path d="m88.73 140.15h1.06c.36 0 .6.23.61.55 0 .33-.24.57-.62.58-.72 0-1.43 0-2.15 0-.36 0-.6-.23-.61-.55 0-.33.24-.57.62-.58z" fill="#fff"/><path d="m113.53 141.27c-.36 0-.73 0-1.09 0-.36-.01-.6-.24-.6-.56s.24-.56.6-.56h2.19c.36 0 .6.24.6.56s-.24.55-.6.56-.73 0-1.09 0z" fill="#fff"/><path d="m91.91 134.96c0 .52-.41.8-.77.61-.7-.37-1.39-.77-2.07-1.19-.26-.16-.29-.44-.15-.72.14-.26.45-.37.73-.22.68.37 1.35.76 2.01 1.16.14.09.21.29.25.35z" fill="#fff"/><path d="m91.91 146.48c-.07.08-.17.28-.33.38-.61.38-1.23.73-1.85 1.08-.34.19-.66.11-.82-.18s-.06-.6.27-.8c.61-.36 1.23-.73 1.85-1.07.43-.24.88.02.87.6z" fill="#fff"/><path d="m113.4 147.36c0 .52-.39.82-.74.64-.71-.37-1.41-.78-2.1-1.2-.26-.16-.29-.44-.15-.72.13-.26.45-.37.72-.22.68.37 1.35.75 2.01 1.16.14.09.21.28.26.35z" fill="#fff"/><path d="m94.49 128.43c.07.06.26.15.35.3.38.62.74 1.25 1.1 1.89.18.32.1.63-.17.8-.28.17-.61.08-.81-.25-.37-.62-.73-1.23-1.07-1.86-.24-.43.02-.88.6-.87z" fill="#fff"/></svg>