<svg viewBox="0 0 220 200" xmlns="http://www.w3.org/2000/svg"><rect fill="#ff0606" height="115.52" rx="13.53" width="143.67" x="27.55" y="40.95"/><path d="m186.15 98.43-15.18-11.52v23.05z" fill="#ff0606"/><circle cx="94.17" cy="142.05" fill="#ff0606" r="20.84" stroke="#fff" stroke-miterlimit="10" stroke-width="2.2" transform="matrix(.16022575 -.9870804 .9870804 .16022575 -61.12 212.25)"/><g fill="#fff"><path d="m91.05 143.78c-.1.24-.14.37-.2.49-.5 1.04-1.34 1.61-2.49 1.68-.2.01-.29.07-.35.26-.36 1.06-.74 2.12-1.11 3.18-.13.37-.12.73.04 1.09.61 1.42 1.21 2.84 1.82 4.26.2.46.21.94.19 1.42-.02.26-.22.44-.47.44s-.49-.19-.46-.44c.07-.73-.26-1.34-.53-1.97-.48-1.12-.96-2.25-1.43-3.37-.25-.59-.25-1.18-.04-1.79.39-1.08.76-2.17 1.14-3.28-1.16-.58-1.82-1.5-1.74-2.8s.83-2.15 2.07-2.59c-.09-.09-.16-.17-.23-.25-.74-.75-1.49-1.49-2.24-2.24-.35-.35-.35-.56 0-.9l2.26-2.26c.07-.07.13-.14.2-.21-1.68-.91-2.27-1.88-2.01-3.32.21-1.15 1.21-2.11 2.36-2.26 1.42-.18 2.43.46 3.21 2.09.24-.26.46-.52.7-.75.59-.6 1.18-1.19 1.78-1.78.31-.31.55-.32.86 0 .94.94 1.88 1.88 2.83 2.82.16.16.31.36.19.57-.09.15-.29.3-.47.34-.93.23-1.53.96-1.52 1.89 0 .9.64 1.65 1.54 1.84.96.19 1.95-.45 2.18-1.41.01-.05.02-.1.03-.15.12-.46.52-.58.86-.25.59.58 1.17 1.17 1.76 1.76.37.37.74.74 1.11 1.11.31.31.31.54 0 .86-.75.75-1.51 1.51-2.26 2.26-.08.08-.15.15-.22.24 1.46.66 2.11 1.58 2.06 2.87-.05 1.25-.78 2.17-2.15 2.66v2.68c0 .82-.64 1.44-1.46 1.42-.74-.01-1.41-.25-2-.7-.08-.06-.15-.12-.23-.18-.03.01-.06.03-.09.04.13.35.25.7.38 1.04.17.47.39.93.49 1.41.19.89.06 1.76-.33 2.59-.05.11-.09.22-.16.32-.3.48-.47.99-.4 1.57v.09c-.03.26-.22.44-.47.45-.25 0-.46-.18-.47-.44-.03-.58-.05-1.16.29-1.69.11-.17.19-.37.28-.55.52-1.05.54-2.11 0-3.15-.4-.78-.59-1.59-.58-2.47.02-1.8.01-3.61 0-5.41 0-.98-.92-1.64-1.83-1.37-.6.18-1 .73-1 1.38v4.35 2.04c0 .46-.15.68-.47.68s-.47-.22-.48-.68c0-1.32-.03-2.64.01-3.96.01-.51-.1-.89-.51-1.2-.1-.07-.15-.21-.26-.37zm8.81-8.44c-.71 1.2-1.76 1.79-3.17 1.5-1.13-.23-1.89-.96-2.14-2.08-.33-1.44.25-2.51 1.52-3.27-.37-.36-.72-.7-1.07-1.05-.34-.35-.68-.7-1.06-1.09-.14.17-.24.3-.36.42-.86.86-1.72 1.71-2.57 2.57-.17.17-.36.26-.58.16-.23-.1-.3-.29-.28-.53 0-.06 0-.12 0-.18.02-1.1-.81-1.93-1.92-1.92-1.06 0-1.9.88-1.86 1.92.04 1.07.94 1.9 2.02 1.82.26-.02.5 0 .63.27s-.02.47-.2.65c-.71.7-1.41 1.41-2.12 2.11-.26.25-.53.5-.8.75.12.12.19.2.26.28.86.86 1.71 1.72 2.57 2.57.07.07.17.13.2.21.05.17.12.37.06.51-.05.12-.26.2-.41.26-.09.04-.21 0-.32 0-1.02 0-1.86.8-1.9 1.81-.04 1.03.74 1.89 1.77 1.97.98.07 1.88-.67 2-1.66.02-.17-.03-.36.01-.53.04-.16.13-.35.26-.45.17-.14.38-.06.53.09.23.22.45.45.67.67.05.05.11.09.18.14.09-1.67.87-2.64 2.16-2.74 1.35-.11 2.27.7 2.66 2.32.1-.09.17-.2.26-.31.17-.19.37-.3.63-.18.25.13.28.35.26.6-.1 1.08.75 2.02 1.83 2.05s1.95-.84 1.94-1.92c-.01-1.1-.9-1.91-2.04-1.86-.25.01-.48 0-.6-.26-.12-.27.01-.46.2-.65.89-.89 1.78-1.79 2.67-2.68.07-.07.14-.15.2-.21-.71-.71-1.4-1.4-2.09-2.1zm-3 8.46c-.14.24-.31.4-.32.57-.03.81-.03 1.61 0 2.42.04 1.21 1.08 2.23 2.27 2.25.32 0 .55-.15.55-.44.01-.87 0-1.75 0-2.64-1.25-.18-2.07-.87-2.51-2.15z"/><path d="m81.9 137.2h1.3c.35 0 .56.19.56.47 0 .29-.21.47-.56.47-.89 0-1.77 0-2.66 0-.35 0-.56-.19-.56-.47 0-.29.21-.47.56-.47z"/><path d="m106.45 138.15c-.43 0-.87 0-1.3 0-.35 0-.56-.19-.56-.47 0-.29.21-.47.56-.47h2.66c.35 0 .56.19.56.47 0 .29-.21.47-.56.47-.45 0-.91 0-1.36 0z"/><path d="m84.28 143.2c-.05.07-.12.24-.25.32-.81.49-1.63.96-2.45 1.42-.26.15-.53.06-.66-.18-.12-.23-.06-.48.19-.63.81-.47 1.61-.94 2.43-1.4.34-.19.72.02.73.48z"/><path d="m104.58 142.64c.07.03.16.05.25.1.79.45 1.57.9 2.35 1.36.3.18.38.44.23.69-.14.24-.41.29-.7.13-.79-.45-1.59-.91-2.38-1.37-.21-.12-.31-.3-.24-.54.06-.23.23-.33.49-.36z"/><path d="m84.27 132.12c0 .47-.37.69-.71.51-.33-.17-.65-.37-.97-.56-.47-.27-.94-.54-1.4-.81-.3-.18-.39-.44-.25-.69s.41-.31.72-.13c.78.44 1.55.88 2.32 1.34.14.09.24.26.3.33z"/><path d="m104.47 132.76c-.12-.13-.28-.24-.36-.39-.1-.21 0-.41.19-.53.36-.22.73-.43 1.09-.64.43-.25.85-.49 1.28-.73.32-.18.59-.13.74.12.14.25.05.51-.25.69-.76.44-1.53.88-2.3 1.32-.1.06-.21.09-.4.16z"/><path d="m49.7 90.89h4.28c1.18 0 2.2.14 3.06.42s1.58.68 2.15 1.19.99 1.12 1.27 1.84c.28.71.41 1.5.41 2.37s-.14 1.67-.42 2.42-.71 1.4-1.3 1.96-1.31 1-2.19 1.31c-.88.32-1.91.48-3.1.48h-4.18v-11.99zm4.45 9.27c1.06 0 1.84-.28 2.34-.85.5-.56.76-1.4.76-2.5s-.25-1.94-.76-2.45c-.51-.5-1.32-.76-2.42-.76h-.92v6.55h1.01z"/><path d="m68.65 103.09c-1.07 0-2.01-.17-2.82-.52s-1.49-.81-2.03-1.39c-.55-.58-.96-1.24-1.23-1.98-.28-.74-.41-1.51-.41-2.3s.13-1.58.4-2.33.67-1.41 1.21-1.99 1.2-1.04 2.01-1.39c.8-.35 1.74-.52 2.81-.52s2 .17 2.8.51 1.46.8 2 1.36c.53.56.93 1.21 1.2 1.95.26.74.4 1.5.4 2.29s-.13 1.58-.39 2.34-.65 1.43-1.17 2.02-1.18 1.06-1.97 1.41-1.72.53-2.79.53zm-.07-2.74c.52 0 .95-.09 1.3-.28s.64-.44.86-.76.37-.68.47-1.1c.1-.41.14-.85.14-1.32s-.04-.91-.13-1.33-.24-.79-.45-1.12-.49-.58-.84-.77-.77-.28-1.28-.28-.96.09-1.32.27c-.37.18-.66.42-.89.73s-.39.66-.5 1.07c-.1.41-.15.85-.15 1.31s.05.92.15 1.35.26.81.49 1.14.51.59.86.78.78.29 1.29.29z"/><path d="m76.92 90.89h4.28c1.18 0 2.2.14 3.06.42s1.58.68 2.15 1.19.99 1.12 1.27 1.84c.28.71.41 1.5.41 2.37s-.14 1.67-.42 2.42-.71 1.4-1.3 1.96-1.31 1-2.19 1.31c-.88.32-1.91.48-3.1.48h-4.18v-11.99zm4.45 9.27c1.06 0 1.84-.28 2.34-.85.5-.56.76-1.4.76-2.5s-.25-1.94-.76-2.45c-.51-.5-1.32-.76-2.42-.76h-.92v6.55h1.01z"/><path d="m90.13 90.89h3.46v11.99h-3.46z"/><path d="m96.3 106.75c-.58 0-1.04-.04-1.4-.12-.35-.08-.67-.17-.94-.26l.54-2.74c.08.04.22.08.4.13.19.05.36.07.53.07.53 0 .89-.11 1.1-.33.2-.22.31-.62.31-1.2v-11.41h3.46v11.86c0 .66-.1 1.24-.29 1.74s-.46.92-.82 1.25c-.35.34-.78.59-1.27.76s-1.03.25-1.62.25z"/><path d="m102.89 90.89h7.52v2.79h-4.14v1.8h3.65v2.59h-3.65v2.02h4.27v2.79h-7.65z"/><path d="m112.9 90.89h3.46v9.27h4.27v2.72h-7.72v-11.99z"/><path d="m122.47 106.75c-.58 0-1.04-.04-1.4-.12-.35-.08-.67-.17-.94-.26l.54-2.74c.08.04.22.08.4.13.19.05.36.07.53.07.53 0 .89-.11 1.1-.33.2-.22.31-.62.31-1.2v-11.41h3.46v11.86c0 .66-.1 1.24-.29 1.74s-.46.92-.82 1.25c-.35.34-.78.59-1.27.76s-1.03.25-1.62.25z"/><path d="m129.06 90.89h7.52v2.79h-4.14v1.8h3.65v2.59h-3.65v2.02h4.27v2.79h-7.65z"/><path d="m139 90.89h3.47l3.28 4.7c.42.61.75 1.12.99 1.54s.37.64.4.67h.04s0-.1-.02-.23c-.01-.13-.02-.29-.03-.49s-.01-.41-.02-.65c0-.24 0-.48 0-.72v-4.82h3.1v11.99h-3.13l-3.67-5.17c-.44-.61-.77-1.08-.97-1.4l-.34-.59h-.04c0 .06 0 .26.03.61.02.35.03.75.03 1.21v5.35h-3.1v-11.99z"/></g></svg>