<svg viewBox="0 0 220 200" xmlns="http://www.w3.org/2000/svg"><rect fill="#d1d3d4" height="115.52" rx="13.53" width="143.67" x="35.38" y="45.83"/><g fill="#a7a9ac"><path d="m58.13 97.21h3.46v11.99h-3.46z"/><path d="m67.47 109.41c-.5 0-.97-.04-1.39-.12s-.79-.18-1.12-.3-.62-.25-.85-.38c-.24-.13-.43-.25-.58-.36l1.35-2.38c.07.04.18.1.32.19s.32.18.54.27.46.17.72.23c.26.07.55.1.86.1.98 0 1.48-.29 1.48-.88 0-.19-.07-.34-.21-.46-.14-.11-.33-.22-.57-.31-.24-.1-.52-.2-.83-.32-.31-.11-.65-.26-1.01-.44-.37-.18-.71-.38-1-.61s-.55-.49-.76-.78-.37-.63-.48-1.02c-.11-.38-.16-.82-.16-1.31 0-.54.11-1.03.32-1.46s.5-.8.86-1.12c.37-.31.8-.55 1.31-.72s1.07-.25 1.67-.25c.53 0 .99.04 1.4.11.4.07.76.16 1.06.26.31.1.57.21.78.33s.4.23.54.34l-1.28 2.38c-.11-.06-.24-.13-.41-.21-.16-.08-.34-.15-.55-.22-.2-.07-.41-.13-.63-.18s-.43-.07-.65-.07c-.41 0-.71.06-.91.18s-.3.33-.3.63c0 .18.05.33.16.44s.26.22.46.32.43.2.71.3.58.22.9.36c.4.18.77.37 1.11.57s.64.43.9.71.46.6.6.98.22.83.22 1.36c0 1.21-.4 2.15-1.2 2.83s-1.93 1.01-3.41 1.01z"/><path d="m73.95 97.21h4.66c.68 0 1.32.08 1.92.24s1.11.41 1.55.74.78.75 1.04 1.25.38 1.1.38 1.8-.13 1.32-.38 1.84-.61.95-1.06 1.3c-.46.35-1 .61-1.65.77-.64.17-1.35.25-2.13.25h-.88v3.8h-3.44v-11.99zm4.36 5.67c.61 0 1.06-.13 1.34-.38s.42-.66.42-1.22-.14-.95-.42-1.18-.71-.35-1.27-.35h-.99v3.13z"/><path d="m91.13 109.41c-1.07 0-2.01-.17-2.82-.52s-1.49-.81-2.03-1.39-.96-1.24-1.23-1.98-.41-1.51-.41-2.3.14-1.58.41-2.33.67-1.41 1.21-1.99c.53-.58 1.2-1.04 2.01-1.39.8-.35 1.74-.52 2.81-.52s2 .17 2.8.51 1.46.79 2 1.36c.53.56.93 1.21 1.2 1.95.26.74.4 1.5.4 2.29s-.13 1.58-.39 2.34-.65 1.43-1.17 2.02-1.18 1.06-1.97 1.41-1.72.53-2.79.53zm-.07-2.74c.52 0 .95-.09 1.3-.28s.64-.44.85-.76c.22-.32.37-.68.47-1.1.1-.41.14-.85.14-1.32s-.04-.91-.13-1.33-.24-.79-.45-1.12c-.21-.32-.49-.58-.84-.77s-.77-.28-1.28-.28-.96.09-1.32.27c-.37.18-.66.42-.89.73s-.39.66-.5 1.07c-.1.41-.15.85-.15 1.31s.05.92.15 1.35.26.81.49 1.14c.22.33.51.59.86.78s.78.29 1.29.29z"/><path d="m99.39 97.21h4.59c1.54 0 2.72.31 3.55.92s1.24 1.52 1.24 2.74c0 .49-.07.92-.21 1.29s-.32.68-.54.94-.47.48-.76.66-.56.31-.84.41v.04c.2.14.43.36.67.66.25.29.53.71.84 1.23l1.85 3.11h-3.69l-2.03-3.42c-.14-.23-.26-.41-.36-.55s-.19-.24-.27-.31-.16-.12-.23-.14-.16-.04-.25-.04h-.13v4.46h-3.44v-11.99zm4.52 5.22c.5 0 .88-.12 1.12-.35.25-.23.37-.56.37-.98 0-.46-.12-.79-.37-1.02-.25-.22-.66-.33-1.23-.33h-.97v2.68z"/><path d="m116.36 109.41c-1.82 0-3.2-.41-4.11-1.21-.92-.81-1.38-2.07-1.38-3.77v-7.22h3.44v6.98c0 .42.04.79.11 1.1s.19.57.35.76c.16.2.38.35.65.44.27.1.61.14 1.02.14.74 0 1.26-.2 1.55-.6s.43-.99.43-1.77v-7.06h3.15v6.86c0 1.78-.44 3.11-1.32 4s-2.18 1.34-3.88 1.34z"/><path d="m129.84 109.41c-1.09 0-2.04-.17-2.83-.51-.8-.34-1.46-.8-1.98-1.37s-.91-1.23-1.17-1.98-.39-1.53-.39-2.35.13-1.6.4-2.35c.26-.75.66-1.41 1.2-1.98.53-.57 1.21-1.03 2.02-1.37s1.75-.51 2.83-.51c.79 0 1.5.08 2.12.25s1.17.41 1.67.74l-1.48 2.48c-.32-.19-.66-.35-1.02-.47-.35-.12-.8-.18-1.34-.18-.44 0-.84.08-1.18.24s-.63.39-.86.67c-.23.29-.41.63-.53 1.04-.12.4-.18.84-.18 1.32 0 .5.06.97.17 1.4s.29.79.52 1.1.53.55.87.72c.35.17.76.26 1.22.26.65 0 1.16-.09 1.55-.28.38-.19.71-.38.99-.57l1.37 2.38c-.16.13-.37.28-.63.43s-.57.3-.91.43-.72.24-1.13.32-.84.13-1.29.13zm-3.82-16.04h2.65l.94.9.94-.9h2.65l-2.36 2.95h-2.48l-2.32-2.95z"/><path d="m135.28 97.21h7.52v2.79h-4.14v1.8h3.65v2.59h-3.65v2.02h4.27v2.79h-7.65z"/><path d="m145.22 97.21h3.47l3.28 4.7c.42.61.75 1.12.99 1.54.24.41.37.64.4.67h.04s0-.1-.02-.23c-.01-.13-.02-.29-.03-.49 0-.19-.01-.41-.02-.65 0-.24 0-.48 0-.72v-4.82h3.1v11.99h-3.13l-3.67-5.17c-.44-.61-.77-1.08-.97-1.4l-.34-.59h-.04c0 .06 0 .26.03.61.02.35.03.75.03 1.21v5.35h-3.1v-11.99z"/></g><circle cx="107.22" cy="146.53" fill="#d1d3d4" r="20.84" stroke="#fff" stroke-miterlimit="10" stroke-width="2.2" transform="matrix(.16022575 -.9870804 .9870804 .16022575 -54.6 228.89)"/><path d="m125.94 134.25c-.51.6-1.12 1.15-1.69 1.68-.49.44-.95.9-1.42 1.36-2.55 2.52-5.07 5.06-7.65 7.55-1.54 1.48-3 3.03-4.56 4.49-1.28 1.2-2.5 2.46-3.74 3.69-.22.21-.35.22-.59.01-1.01-.91-1.94-1.91-2.92-2.85-2.05-1.96-4.07-3.95-6.1-5.94-.46-.45-.96-.86-1.37-1.35.87-.87 1.74-1.76 2.63-2.61.52-.5 1.21-.45 1.76.09 1.28 1.26 2.55 2.52 3.82 3.78.73.72 1.46 1.43 2.18 2.16.23.24.35.25.59 0 3.09-3.2 6.2-6.4 9.3-9.59 1.29-1.33 2.59-2.66 3.88-3.99.1-.11.2-.22.3-.34.24-.17.44-.38.62-.61.73-.94 1.53-1 2.36-.17l2.27 2.27c.12.12.22.24.33.38z" fill="#f7f7f7"/><path d="m107.72 155.08c.58-.58 2.49-2.47 3.07-3.04 4.53-4.48 9.06-8.95 13.59-13.43.1-.1.19-.13.35-.23.28.71.62 1.4.81 2.15-1.4 1.13-2.8 2.27-4.2 3.4-1.98 1.6-3.96 3.2-5.94 4.8-2 1.62-3.99 3.24-5.99 4.85-.11.09-1.36 1.24-1.7 1.49z" fill="#a8aaac"/><path d="m108.8 154.03c.03-.05.07-.11.14-.09-.05.03-.09.06-.14.09z" fill="#a8aaac"/><path d="m107.77 155.03c-.49.57-1.66.54-2.21 0-3.29-3.29-6.62-6.55-9.93-9.82-.74-.73-.74-1.34 0-2.07.09-.09.19-.16.29-.24.41.5.91.9 1.37 1.35 2.02 1.99 4.05 3.98 6.1 5.94.98.94 1.91 1.94 2.92 2.85.24.21.37.2.59-.01 1.25-1.23 2.46-2.49 3.74-3.69 1.56-1.46 3.02-3.01 4.56-4.49 2.58-2.48 5.1-5.03 7.65-7.55.47-.46 2.56-2.48 3.06-3.08.15.13.26.22.41.38.37.41.51.99.38 1.53l-.04.17c-.04.17-.13.32-.25.44-1.5 1.52-11.35 11.12-15.6 15.31-.58.58-1.16 1.16-1.74 1.74" fill="#e9eaea"/></svg>