<svg viewBox="0 0 220 200" xmlns="http://www.w3.org/2000/svg"><rect fill="#d1d3d4" height="115.52" rx="13.53" width="143.67" x="35.71" y="42.77"/><path d="m194.3 98.92-15.18-11.53v23.06z" fill="#d1d3d4"/><g fill="#a7a9ac"><path d="m65.45 58.69h3.46v11.99h-3.46z"/><path d="m74.79 70.9c-.5 0-.97-.04-1.39-.12s-.79-.18-1.12-.3-.62-.25-.85-.38c-.24-.13-.43-.25-.58-.36l1.35-2.38c.07.04.18.1.32.19s.32.18.54.27.46.17.72.23c.26.07.55.1.86.1.98 0 1.48-.29 1.48-.88 0-.19-.07-.34-.21-.46-.14-.11-.33-.22-.57-.31-.24-.1-.52-.2-.83-.32-.31-.11-.65-.26-1.01-.44-.37-.18-.71-.38-1-.61s-.55-.49-.76-.78-.37-.63-.48-1.02c-.11-.38-.16-.82-.16-1.31 0-.54.11-1.03.32-1.46s.5-.8.86-1.12c.37-.31.8-.55 1.31-.72s1.07-.25 1.67-.25c.53 0 .99.04 1.4.11.4.07.76.16 1.06.26s.57.21.78.33c.22.12.4.23.54.34l-1.28 2.38c-.11-.06-.24-.13-.41-.21-.16-.08-.34-.15-.55-.22-.2-.07-.41-.13-.63-.18s-.43-.07-.65-.07c-.41 0-.71.06-.91.18s-.3.33-.3.63c0 .18.05.33.16.44s.26.22.46.32.43.2.71.3.58.22.9.36c.4.18.77.37 1.11.57s.64.44.9.71c.26.28.46.6.6.98s.22.83.22 1.36c0 1.21-.4 2.15-1.2 2.83-.8.67-1.93 1.01-3.41 1.01z"/><path d="m81.27 58.69h4.66c.68 0 1.32.08 1.92.24s1.11.41 1.55.74.78.75 1.04 1.25.38 1.1.38 1.8-.13 1.32-.38 1.84-.61.95-1.06 1.3c-.46.35-1 .61-1.65.77-.64.17-1.35.25-2.13.25h-.88v3.8h-3.44v-11.99zm4.36 5.67c.61 0 1.06-.13 1.34-.38s.42-.66.42-1.22-.14-.95-.42-1.18-.71-.35-1.27-.35h-.99v3.13z"/><path d="m98.44 70.9c-1.07 0-2.01-.17-2.82-.52s-1.49-.81-2.03-1.39c-.55-.58-.96-1.24-1.23-1.98s-.41-1.51-.41-2.3.14-1.58.41-2.33.67-1.41 1.21-1.99c.53-.58 1.2-1.04 2.01-1.39.8-.35 1.74-.52 2.81-.52s2 .17 2.8.51 1.46.79 2 1.36c.53.56.93 1.21 1.2 1.95.26.74.4 1.5.4 2.29s-.13 1.58-.39 2.34-.65 1.43-1.17 2.02-1.18 1.06-1.97 1.41-1.72.53-2.79.53zm-.07-2.74c.52 0 .95-.09 1.3-.28s.64-.44.85-.76c.22-.32.37-.68.47-1.1.1-.41.14-.85.14-1.32s-.04-.91-.13-1.33-.24-.79-.45-1.12c-.21-.32-.49-.58-.84-.77s-.77-.28-1.28-.28-.96.09-1.32.27c-.37.18-.66.42-.89.73s-.39.66-.5 1.07c-.1.41-.15.85-.15 1.31s.05.92.15 1.35.26.81.49 1.14c.22.33.51.59.86.78s.78.29 1.29.29z"/><path d="m106.7 58.69h4.59c1.54 0 2.72.31 3.55.92s1.24 1.52 1.24 2.74c0 .49-.07.92-.21 1.29s-.32.68-.54.94-.47.48-.76.66-.56.31-.84.4v.04c.2.14.43.36.67.66.25.29.53.71.84 1.23l1.85 3.11h-3.69l-2.03-3.42c-.14-.23-.26-.41-.36-.55s-.19-.24-.27-.31-.16-.12-.23-.14-.16-.04-.25-.04h-.13v4.46h-3.44v-11.99zm4.52 5.22c.5 0 .88-.12 1.12-.35.25-.23.37-.56.37-.98 0-.46-.12-.79-.37-1.02-.25-.22-.66-.33-1.23-.33h-.97v2.68z"/><path d="m123.68 70.9c-1.82 0-3.2-.4-4.11-1.21s-1.38-2.07-1.38-3.77v-7.22h3.44v6.98c0 .42.04.79.11 1.1s.19.57.35.76c.16.2.38.35.65.44.27.1.61.14 1.02.14.74 0 1.26-.2 1.55-.6s.43-.99.43-1.77v-7.06h3.15v6.86c0 1.78-.44 3.11-1.32 4s-2.18 1.34-3.88 1.34z"/><path d="m131.44 58.69h3.44v4.72l3.46-4.72h3.73l-4.09 5.49 4.19 6.5h-4l-3.29-5.17v5.17h-3.44z"/><path d="m147.06 58.69h3.29l4.75 11.99h-3.74l-.58-1.69h-4.27l-.56 1.69h-3.47l4.57-11.99zm2.79 7.61-.65-1.89c-.1-.26-.18-.52-.24-.76-.07-.24-.12-.46-.16-.65s-.08-.35-.11-.47-.04-.19-.04-.22h-.04s-.02.1-.05.22l-.11.47c-.05.19-.11.41-.17.66-.07.25-.14.5-.22.75l-.63 1.89h2.43z"/><path d="m60.77 92.5c-.5 0-.97-.04-1.39-.12s-.8-.18-1.12-.3c-.33-.12-.62-.25-.86-.38s-.43-.25-.58-.36l1.35-2.38c.07.04.18.1.32.19s.32.18.54.27.46.17.72.23c.26.07.55.1.86.1.98 0 1.48-.29 1.48-.88 0-.19-.07-.34-.21-.46s-.33-.22-.57-.31-.52-.2-.83-.32c-.31-.11-.65-.26-1.01-.44-.37-.18-.71-.38-1-.61s-.55-.49-.76-.78-.37-.63-.48-1.02c-.11-.38-.16-.82-.16-1.31 0-.54.1-1.03.31-1.46s.5-.8.86-1.12.8-.55 1.31-.72 1.06-.25 1.67-.25c.53 0 .99.04 1.39.11s.76.16 1.06.26c.31.1.57.21.78.33.22.12.4.23.54.34l-1.28 2.38c-.11-.06-.24-.13-.41-.21-.16-.08-.34-.15-.55-.22-.2-.07-.41-.13-.63-.18s-.43-.07-.65-.07c-.41 0-.71.06-.91.18s-.3.33-.3.63c0 .18.05.33.16.44s.26.22.46.32.43.2.71.3.58.22.9.36c.4.18.76.37 1.11.57.34.2.64.44.9.71.26.28.46.6.6.98s.22.83.22 1.36c0 1.21-.4 2.15-1.2 2.83-.8.67-1.94 1.01-3.41 1.01z"/><path d="m67.36 80.29h3.46v9.27h4.27v2.72h-7.72v-11.99z"/><path d="m77.24 80.29h3.46v11.99h-3.46z"/><path d="m83.41 96.15c-.58 0-1.04-.04-1.39-.12s-.67-.17-.95-.26l.54-2.74c.08.04.22.08.41.13s.36.07.53.07c.53 0 .89-.11 1.1-.33.2-.22.31-.62.31-1.2v-11.41h3.46v11.86c0 .66-.1 1.24-.29 1.74s-.46.92-.82 1.25c-.35.34-.78.59-1.27.76s-1.03.25-1.62.25z"/><path d="m90 80.29h7.52v2.79h-4.14v1.8h3.65v2.59h-3.65v2.02h4.27v2.79h-7.65z"/><path d="m99.93 80.29h4.28c1.18 0 2.2.14 3.06.42s1.58.68 2.15 1.19.99 1.12 1.27 1.84c.28.71.41 1.5.41 2.37s-.14 1.67-.42 2.42-.71 1.4-1.3 1.96-1.31 1-2.19 1.31c-.88.32-1.91.48-3.1.48h-4.18v-11.99zm4.45 9.27c1.06 0 1.84-.28 2.34-.85s.76-1.4.76-2.5-.25-1.94-.76-2.45c-.51-.5-1.32-.76-2.42-.76h-.92v6.55h1.01z"/><path d="m113.04 80.29h7.52v2.79h-4.14v1.8h3.65v2.59h-3.65v2.02h4.27v2.79h-7.65z"/><path d="m128.7 92.5c-1.09 0-2.04-.17-2.83-.51-.8-.34-1.46-.8-1.98-1.37s-.91-1.23-1.17-1.98-.39-1.53-.39-2.35.13-1.6.4-2.35.66-1.41 1.2-1.98c.53-.57 1.21-1.03 2.02-1.37s1.76-.51 2.83-.51c.79 0 1.5.08 2.12.25s1.17.41 1.67.74l-1.48 2.48c-.32-.19-.66-.35-1.02-.47-.35-.12-.8-.18-1.34-.18-.44 0-.84.08-1.18.24s-.63.39-.86.67c-.23.29-.41.63-.53 1.04-.12.4-.18.84-.18 1.32 0 .5.06.97.17 1.4s.29.79.52 1.1.52.55.87.72.76.26 1.22.26c.65 0 1.16-.09 1.55-.28.38-.19.71-.37.99-.57l1.37 2.38c-.16.13-.37.28-.63.43-.26.16-.57.3-.91.43s-.72.24-1.13.32-.84.13-1.29.13zm-.5-15.64h3.98l-2.59 2.56h-2.75l1.37-2.56z"/><path d="m139.71 92.5c-1.07 0-2.01-.17-2.82-.52s-1.49-.81-2.03-1.39c-.55-.58-.96-1.24-1.23-1.98-.28-.74-.41-1.51-.41-2.3s.13-1.58.41-2.33c.27-.75.67-1.41 1.21-1.99.53-.58 1.2-1.04 2.01-1.39.8-.35 1.74-.52 2.81-.52s2 .17 2.8.51 1.46.79 2 1.36c.53.56.93 1.21 1.2 1.95.26.74.4 1.5.4 2.29s-.13 1.58-.39 2.34-.65 1.43-1.17 2.02-1.18 1.06-1.97 1.41-1.72.53-2.79.53zm-.07-2.74c.52 0 .95-.09 1.3-.28s.64-.44.86-.76.37-.68.47-1.1.14-.85.14-1.32-.05-.91-.14-1.33-.24-.79-.45-1.12c-.21-.32-.49-.58-.84-.77s-.77-.28-1.28-.28-.96.09-1.32.27c-.37.18-.66.42-.89.73s-.39.66-.5 1.07c-.1.41-.15.85-.15 1.31s.05.92.15 1.35.26.81.49 1.14c.22.33.51.59.86.78s.78.29 1.29.29z"/><path d="m148.82 80.29h3.35l2 6.8c.05.19.1.4.16.61.06.22.11.42.15.61s.08.36.12.5.05.21.05.22h.04s.02-.09.05-.22c.04-.14.08-.3.13-.5s.1-.4.16-.61c.06-.22.12-.42.18-.61l2.11-6.8h3.35l1.66 11.99h-3.51l-.56-4.88c-.06-.46-.11-.85-.14-1.2-.04-.34-.05-.54-.05-.6h-.04c-.01.06-.06.26-.14.6s-.19.72-.31 1.14l-1.39 4.93h-3.4l-1.35-4.91c-.05-.18-.1-.37-.14-.57-.05-.2-.1-.38-.14-.55l-.11-.43c-.02-.12-.04-.19-.04-.22h-.04s0 .11 0 .23c0 .11-.02.26-.03.43s-.03.36-.04.56c-.02.2-.04.39-.06.58l-.61 4.88h-3.06l1.67-11.99z"/><path d="m65.89 101.89h3.71l2.07 6.32c.07.23.14.45.21.67s.12.42.17.6.09.33.12.45.04.19.04.2h.04s.02-.08.05-.21.08-.28.13-.46.1-.38.16-.6.13-.44.2-.66l1.98-6.32h3.46l-4.46 11.99h-3.24l-4.63-11.99z"/><path d="m79.68 101.89h7.52v2.79h-4.14v1.8h3.65v2.59h-3.65v2.02h4.27v2.79h-7.65z"/><path d="m89.61 101.89h4.59c1.54 0 2.72.31 3.55.92s1.24 1.52 1.24 2.74c0 .49-.07.92-.21 1.29s-.32.68-.54.94-.47.48-.76.66c-.28.17-.56.31-.84.4v.04c.2.14.43.36.67.66.25.29.52.71.84 1.23l1.85 3.11h-3.69l-2.03-3.42c-.14-.23-.26-.41-.36-.55s-.19-.24-.27-.31-.16-.12-.23-.14-.16-.04-.25-.04h-.13v4.46h-3.44v-11.99zm4.52 5.22c.5 0 .88-.12 1.12-.35.25-.23.37-.56.37-.98 0-.46-.12-.79-.37-1.02-.25-.22-.66-.33-1.23-.33h-.97v2.68z"/><path d="m100.84 111.7 4.64-7.02h-4.48v-2.79h8.68v2.16l-4.66 7.04h4.79v2.79h-8.96v-2.18z"/><path d="m111.82 101.89h3.46v11.99h-3.46z"/><path d="m118 117.75c-.58 0-1.04-.04-1.39-.12s-.67-.17-.95-.26l.54-2.74c.08.04.22.08.41.13s.36.07.53.07c.53 0 .89-.11 1.1-.33.2-.22.31-.62.31-1.2v-11.41h3.46v11.86c0 .66-.1 1.24-.29 1.74s-.46.92-.82 1.25c-.35.34-.78.59-1.27.76s-1.03.25-1.62.25z"/><path d="m130.44 114.1c-1.07 0-2.01-.17-2.82-.52s-1.49-.81-2.03-1.39c-.55-.58-.96-1.24-1.23-1.98s-.41-1.51-.41-2.3.14-1.58.41-2.33.67-1.41 1.21-1.99c.53-.58 1.2-1.04 2.01-1.39.8-.35 1.74-.52 2.81-.52s2 .17 2.8.51 1.46.79 2 1.36c.53.56.93 1.21 1.2 1.95.26.74.4 1.5.4 2.29s-.13 1.58-.39 2.34-.65 1.43-1.17 2.02-1.18 1.06-1.97 1.41-1.72.53-2.79.53zm-.07-2.74c.52 0 .95-.09 1.3-.28s.64-.44.85-.76c.22-.32.37-.68.47-1.1.1-.41.14-.85.14-1.32s-.04-.91-.13-1.33-.24-.79-.45-1.12c-.21-.32-.49-.58-.84-.77s-.77-.28-1.28-.28-.96.09-1.32.27c-.37.18-.66.42-.89.73s-.39.66-.5 1.07c-.1.41-.15.85-.15 1.31s.05.92.15 1.35.26.81.49 1.14c.22.33.51.59.86.78s.78.29 1.29.29z"/><path d="m139.54 101.89h3.35l2 6.8c.05.19.1.4.16.61.06.22.11.42.15.61s.08.36.12.5.05.21.05.22h.04s.02-.09.05-.22c.04-.14.08-.3.13-.5s.1-.4.16-.61c.06-.22.12-.42.18-.61l2.11-6.8h3.35l1.66 11.99h-3.51l-.56-4.88c-.06-.46-.11-.85-.14-1.2-.04-.34-.05-.54-.05-.6h-.04c-.01.06-.06.26-.14.6s-.19.72-.31 1.14l-1.39 4.93h-3.4l-1.35-4.91c-.05-.18-.1-.37-.14-.57-.05-.2-.1-.38-.14-.55l-.11-.43c-.02-.12-.04-.19-.04-.22h-.04s0 .11 0 .23c0 .11-.02.26-.03.43s-.03.36-.04.56c-.02.2-.04.39-.06.58l-.61 4.88h-3.06l1.67-11.99z"/></g><circle cx="108.72" cy="144.06" fill="#d1d3d4" r="20.84" stroke="#fff" stroke-miterlimit="10" stroke-width="2.2" transform="matrix(.16022575 -.9870804 .9870804 .16022575 -50.9 228.31)"/><path d="m116.36 133.33h2.53c1.54 0 2.65 1.11 2.65 2.66v15.22c0 .25.05.39.3.51.98.47 1.45 1.54 1.2 2.67-.23 1.02-1.14 1.74-2.25 1.74-5.04 0-10.08 0-15.12 0-2.7 0-5.4 0-8.1 0-1.22 0-2.14-.67-2.39-1.73-.28-1.18.21-2.2 1.32-2.75.17-.08.16-.19.16-.33 0-1.89 0-3.78 0-5.67 0-3.2 0-6.39 0-9.59 0-1.65 1.08-2.74 2.73-2.74h3.5c-.21.39-.53.7-.79 1.04-.86 0-1.73.03-2.59-.02-1.13-.06-1.83.73-1.82 1.8.03 4.89.01 9.78.01 14.66 0 .64 0 .62.65.65.34.02.39-.1.39-.41 0-5 0-9.99 0-14.99 0-.51.17-.68.68-.68h2.43v1.03c-.59 0-1.19.02-1.78 0-.26 0-.29.08-.29.31v14.41c0 .29.09.33.34.32 1.09-.01 2.18 0 3.27 0 .84 0 1.51.31 2 .99.28.39.66.57 1.13.57h5.18c.48 0 .86-.17 1.14-.56.49-.68 1.16-1 2-1h3.27c.25 0 .34-.04.34-.32-.01-4.8 0-9.61 0-14.41 0-.23-.03-.32-.29-.31-.59.02-1.19 0-1.78 0v-1.03h2.36c.59 0 .74.15.74.75v14.6c0 .72 0 .71.74.73.23 0 .3-.05.3-.29 0-5.06 0-10.12 0-15.18 0-.99-.65-1.63-1.65-1.63-.83 0-1.66 0-2.49 0 0-.34 0-.69 0-1.03zm-7.26 21.76h11.63c.81 0 1.33-.52 1.33-1.3 0-.77-.52-1.29-1.31-1.29-1.99 0-3.97 0-5.96 0-.47 0-.84.17-1.11.55-.5.7-1.19 1.02-2.05 1.01-1.65-.01-3.3-.02-4.95 0-.92.01-1.66-.3-2.19-1.07-.22-.31-.53-.49-.91-.49-2.08 0-4.17-.01-6.25 0-.67 0-1.16.55-1.18 1.22-.02.83.5 1.36 1.33 1.36h11.63z" fill="#fff"/><path d="m102.1 134.37c.27-.34.59-.65.79-1.04.5-.48.88-1.06 1.32-1.59.55-.66 1.07-1.35 1.62-2.02.29-.35.68-.54 1.13-.54h7.9c.81 0 1.49.71 1.5 1.52v2.62 1.03 1.04 1.03 8.65c0 1.09-.64 1.72-1.73 1.72-3.68 0-7.36 0-11.04 0-1.1 0-1.73-.63-1.73-1.72 0-2.88 0-5.76 0-8.65 0-.34 0-.69 0-1.03-.01-.37.07-.71.26-1.03zm13.22 3.62c0-2.37 0-4.75 0-7.12 0-.47-.18-.65-.64-.65-2.45 0-4.9 0-7.35 0-.24 0-.31.07-.31.31.01 1.39 0 2.78 0 4.18 0 .55-.16.7-.72.7-1.03 0-2.05.01-3.08 0-.28 0-.36.06-.36.35.01 3.11 0 6.22 0 9.32 0 .53.16.69.69.69h11.04c.55 0 .7-.16.7-.72 0-2.35 0-4.7 0-7.06zm-9.33-6.82c-.87 1.09-1.69 2.12-2.54 3.19h2.34c.15 0 .21-.05.21-.21 0-.97 0-1.93 0-2.99z" fill="#fff"/><path d="m108.58 140.58c0-.21 0-.32 0-.44 0-1.15 0-2.31 0-3.46 0-.52.17-.77.53-.76.36 0 .51.24.51.78v3.79c.17.03.25-.09.34-.16.31-.22.6-.46.91-.68.25-.18.55-.12.72.11.16.22.15.53-.08.7-.71.55-1.42 1.08-2.14 1.61-.19.14-.41.1-.6-.04-.67-.5-1.34-1.01-2.01-1.52-.27-.21-.32-.52-.13-.76.18-.23.48-.26.75-.07.38.28.76.56 1.21.9z" fill="#fff"/></svg>