<svg viewBox="0 0 220 200" xmlns="http://www.w3.org/2000/svg"><rect fill="#d1d3d4" height="115.52" rx="13.53" width="143.67" x="34.27" y="41.91"/><path d="m192.87 98.06-15.18-11.53v23.06z" fill="#d1d3d4"/><g fill="#a7a9ac"><path d="m70.76 94.11h4.59c1.54 0 2.72.31 3.55.92s1.24 1.52 1.24 2.74c0 .49-.07.92-.21 1.29s-.32.68-.54.94-.47.48-.76.66-.56.31-.84.4v.04c.2.14.43.36.67.66.25.29.53.71.84 1.23l1.85 3.11h-3.69l-2.03-3.42c-.14-.23-.26-.41-.36-.55s-.19-.24-.27-.31-.16-.12-.23-.14-.16-.04-.25-.04h-.13v4.46h-3.44v-11.99zm4.52 5.22c.5 0 .88-.12 1.12-.35.25-.23.37-.56.37-.98 0-.46-.12-.79-.37-1.02-.25-.22-.66-.33-1.23-.33h-.97v2.68z"/><path d="m86.09 94.11h3.29l4.75 11.99h-3.74l-.58-1.69h-4.27l-.56 1.69h-3.47l4.57-11.99zm2.79 7.61-.65-1.89c-.1-.26-.18-.52-.24-.76-.07-.24-.12-.46-.16-.65s-.08-.35-.11-.47-.04-.19-.04-.22h-.04s-.02.1-.05.22l-.11.47c-.05.19-.11.41-.17.66-.07.25-.14.5-.22.75l-.63 1.89h2.43z"/><path d="m95.18 103.92 4.64-7.02h-4.48v-2.79h8.68v2.16l-4.66 7.04h4.79v2.79h-8.96v-2.18z"/><path d="m104.92 94.11h3.71l2.07 6.32c.07.23.14.45.21.67s.12.42.17.6.09.33.12.45.04.19.04.2h.04s.02-.08.05-.21c.04-.13.08-.28.13-.46s.1-.38.16-.6.13-.44.2-.66l1.98-6.32h3.46l-4.46 11.99h-3.24l-4.63-11.99z"/><path d="m124.11 106.31c-1.07 0-2.01-.17-2.82-.52s-1.49-.81-2.03-1.39c-.55-.58-.96-1.24-1.23-1.98s-.41-1.51-.41-2.3.14-1.58.41-2.33.67-1.41 1.21-1.99c.53-.58 1.2-1.04 2.01-1.39.8-.35 1.74-.52 2.81-.52s2 .17 2.8.51 1.46.79 2 1.36c.53.56.93 1.21 1.2 1.95.26.74.4 1.5.4 2.29s-.13 1.58-.39 2.34-.65 1.43-1.17 2.02-1.18 1.06-1.97 1.41-1.72.53-2.79.53zm-.07-2.74c.52 0 .95-.09 1.3-.28s.64-.44.85-.76c.22-.32.37-.68.47-1.1.1-.41.14-.85.14-1.32s-.04-.91-.13-1.33-.24-.79-.45-1.12c-.21-.32-.49-.58-.84-.77s-.77-.28-1.28-.28-.96.09-1.32.27c-.37.18-.66.42-.89.73s-.39.66-.5 1.07c-.1.41-.15.85-.15 1.31s.05.92.15 1.35.26.81.49 1.14c.22.33.51.59.86.78s.78.29 1.29.29z"/><path d="m132.14 109.97c-.58 0-1.04-.04-1.4-.12-.35-.08-.67-.17-.94-.26l.54-2.74c.08.04.22.08.4.13.19.05.36.07.53.07.53 0 .89-.11 1.1-.33.2-.22.31-.62.31-1.2v-11.41h3.46v11.86c0 .66-.1 1.24-.29 1.74s-.47.92-.82 1.25c-.35.34-.78.59-1.27.76s-1.03.25-1.62.25z"/></g><circle cx="105.08" cy="142.68" fill="#d1d3d4" r="20.84" stroke="#fff" stroke-miterlimit="10" stroke-width="2.2" transform="matrix(.16022575 -.9870804 .9870804 .16022575 -52.6 223.55)"/><path d="m106.14 147.53c-.26-.32-.52-.65-.78-.97l.07-.08h-.31c-3.4 0-6.8 0-10.2 0-.09 0-.19 0-.28 0-.27.05-.43.22-.43.5 0 .26.16.43.41.48.1.02.21.01.31.01h8.12c.11 0 .21-.01.31 0 .27.05.43.23.43.5 0 .26-.16.43-.42.48-.1.02-.21.01-.31.01-2.71 0-5.41 0-8.12 0-.11 0-.21-.01-.31 0-.27.05-.43.23-.43.51 0 .26.16.43.42.48.1.02.21.01.31.01h8.12c.11 0 .21-.01.31 0 .27.05.43.23.43.51 0 .26-.16.43-.42.48-.09.02-.19.01-.28.01-2.74 0-5.47 0-8.21 0-.67 0-1.2-.22-1.52-.82-.31-.59-.21-1.16.19-1.68-.69-1.37-.26-2.36 1.15-2.57 0-.25.02-.5 0-.75 0-.1-.09-.21-.17-.27-1.69-1.41-2.78-3.2-3.19-5.37-.47-2.5.05-4.8 1.49-6.9.22-.32.53-.39.78-.21s.27.46.05.78c-.82 1.18-1.31 2.49-1.44 3.92 0 .06 0 .12-.01.22h1.65 1.14c.27 0 .57 0 .66.3.11.33.17.69-.11.98-.28.3-.41.63-.28 1.04.12.4.47.69.87.71.43.03.76-.15.97-.52.21-.36.18-.81-.11-1.11-.23-.24-.28-.5-.26-.8.02-.39.19-.58.59-.58h1.2 1.22v-1.76c-.48.21-.99.33-1.52.17-.52-.15-.92-.45-1.2-.91-.44-.74-.37-1.66.18-2.33.6-.73 1.45-.89 2.56-.48v-2.25c-1.7.12-3.18.7-4.49 1.72-.08.06-.16.14-.25.2-.25.18-.53.16-.71-.05-.19-.22-.18-.54.08-.72.62-.43 1.23-.88 1.9-1.24 1.19-.63 2.48-.91 3.83-.93.47 0 .65.17.65.64v3.16c0 .28.01.59-.31.69-.33.1-.69.15-.98-.13-.27-.26-.58-.38-.95-.3-.42.09-.73.44-.79.85-.06.4.15.81.51 1.01.37.21.8.17 1.15-.11.13-.1.27-.22.42-.25.71-.12.95.09.95.81v2.19h1.76c-.2-.45-.31-.9-.21-1.38.16-.73.59-1.21 1.27-1.5.12-.05.25-.19.28-.31.19-.62.35-1.25.52-1.92-1.19.13-2.06-.26-2.45-1.42-.26-.79.03-1.68.71-2.17.9-.64 1.79-.54 2.66.15.21-.8.42-1.56.63-2.33.03-.12.06-.25.1-.36.11-.28.34-.41.63-.33 1.82.5 3.34 1.46 4.56 2.9.21.25.18.54-.04.73-.23.2-.51.16-.75-.11-.73-.85-1.59-1.53-2.6-2.02-.3-.15-.61-.26-.96-.41-.15.55-.29 1.06-.43 1.58-.1.38-.21.75-.3 1.13-.07.27-.14.52-.45.58-.29.06-.79-.14-.94-.39-.24-.39-.58-.57-1.03-.51-.41.06-.69.31-.81.7-.12.41-.01.78.31 1.05s.7.33 1.06.14c.28-.14.53-.15.82-.05.41.13.55.34.44.76-.2.76-.41 1.52-.62 2.33.57.15 1.13.3 1.69.46-.07-1.28.35-2.06 1.27-2.4.83-.31 1.76-.05 2.3.64.61.79.57 1.68-.13 2.68.73.19 1.43.38 2.25.6.02-.76.09-1.46.06-2.16-.04-1.04-.33-2.03-.78-2.97-.17-.36-.09-.66.2-.78.28-.12.55 0 .71.34.94 1.98 1.16 4.04.64 6.18-.11.44-.33.57-.77.46-1.09-.29-2.17-.58-3.26-.88-.34-.09-.46-.32-.38-.68.06-.31.17-.56.47-.74.46-.28.56-.88.28-1.34-.28-.45-.86-.6-1.33-.36-.47.25-.66.8-.45 1.3.07.16.16.34.14.5-.08.72-.33.88-1.03.69-.18-.05-.36-.09-.55-.14.03.31.1.61.08.9s-.13.57-.2.87h2.54c.56 0 .72.16.7.71-.1 2.6-1.09 4.8-3.03 6.53-.44.39-.59.77-.47 1.31.27.14.49.07.71-.18.27-.32.59-.6.89-.9.36-.36.59-.36.96 0 .13.13.27.26.41.39.02.02.06 0 .16.01 0-.24 0-.47 0-.71 0-.43.18-.61.62-.61h2.56c.43 0 .61.18.61.62 0 .21 0 .42.01.63 0 .02.02.03.03.05.27-.05.62-.41.63-.67 0-.12 0-.23 0-.35.03-.29.21-.44.48-.45.27 0 .47.14.5.42.03.24 0 .48 0 .74h1.03c0-.19 0-.39 0-.58 0-.29.12-.47.39-.58.22-.1.44-.2.63-.35.28-.22.54-.26.83-.05.13.09.27.16.45.26.17-.28.33-.56.51-.86-.15-.09-.28-.19-.43-.26-.32-.15-.44-.39-.39-.74.03-.23.03-.46 0-.69-.04-.34.05-.57.37-.72.15-.07.29-.16.46-.26-.17-.3-.33-.57-.5-.87-.18.1-.34.18-.48.27-.26.17-.5.15-.76-.04-.2-.15-.42-.28-.65-.38-.29-.12-.43-.32-.41-.63 0-.18 0-.35 0-.55h-1.01v.52c.01.32-.12.54-.43.66-.2.08-.41.18-.57.32-.31.27-.6.26-.91.04-.11-.08-.24-.14-.39-.23-.16.28-.33.56-.5.86.18.11.36.22.54.32.22.12.3.3.29.55-.01.31-.01.63 0 .94 0 .23-.07.41-.27.53-.32.18-.63.37-.96.55-.3.17-.59.09-.74-.17-.14-.25-.05-.52.23-.7.12-.08.25-.16.38-.22.22-.1.32-.23.32-.5s-.16-.33-.33-.43c-.82-.47-.83-.53-.37-1.33.24-.42.48-.84.73-1.26.22-.38.45-.43.84-.22.11.06.22.13.33.19.45.26.8.05.8-.48 0-.94.04-.98.97-.98h1.42c.45 0 .62.17.63.63v.38c0 .51.35.7.8.45.83-.48.89-.46 1.36.36.24.41.47.82.71 1.23.22.38.15.62-.22.84-.11.07-.22.12-.33.19-.16.09-.32.14-.32.4 0 .27.09.41.32.53.82.45.83.52.37 1.33-.23.4-.46.8-.69 1.2-.26.45-.47.5-.93.24-.09-.05-.18-.1-.27-.16-.44-.26-.79-.06-.79.45q0 .93-1.06 1.04c.24.23.45.43.66.63.3.31.3.55 0 .87-.16.17-.33.33-.49.5.02.04.03.08.05.12h.67c.47 0 .65.17.65.65v2.49c0 .47-.17.64-.65.65-.22 0-.43 0-.72 0 .07.13.1.2.14.26.14.15.29.28.42.43.22.25.23.5 0 .73-.64.65-1.29 1.3-1.94 1.94-.24.24-.5.22-.75-.01-.19-.17-.37-.36-.55-.54-.04.01-.08.03-.12.04v.79c-.02.42-.42.67-.75.45-.12-.08-.24-.24-.25-.37-.03-.42-.06-.85 0-1.26.09-.55.68-.47 1.04-.7.2-.13.41-.04.57.12.14.13.26.27.48.5.21-.25.39-.48.58-.69s.41-.39.59-.57c-.2-.3-.51-.55-.53-.82-.03-.31.18-.65.31-.97.21-.51.69-.27 1.08-.35v-1.69c-.31-.06-.71-.03-.91-.21-.24-.22-.35-.61-.47-.94-.18-.49.33-.65.5-.93-.41-.41-.82-.81-1.22-1.21-.21.14-.46.45-.74.47-.31.03-.65-.18-.97-.32-.51-.21-.27-.69-.35-1.08h-1.69c-.06.32-.03.71-.21.92-.2.24-.59.33-.91.46-.51.2-.67-.31-.96-.49-.41.41-.81.82-1.21 1.21.15.22.45.47.47.75.03.31-.18.65-.32.97-.21.5-.69.26-1.08.35v1.69c.32.06.71.03.92.21.24.2.33.59.46.91.2.51-.32.67-.49.96l1.24 1.24c.31-.21.5-.72 1.12-.45s1.12.52.86 1.36c.19 0 .33-.01.46 0 .28.03.47.24.47.5s-.19.48-.47.5c-.31.02-.63.02-.95 0-.29-.02-.46-.22-.47-.53 0-.24-.01-.48-.02-.72 0 0 0-.02-.05-.09-.11.08-.21.15-.3.23-.66.65-.73.65-1.39 0-.51-.51-1.03-1.03-1.54-1.54-.32-.32-.32-.56 0-.89.16-.17.32-.33.49-.49l-.05-.09c-.15 0-.3-.02-.43-.02-.22.48-.38.96-.63 1.39-1.15 1.9-2.86 2.87-5.07 2.76-2.16-.1-3.74-1.2-4.73-3.13-.21-.41-.15-.7.15-.84.3-.15.55-.02.76.4 1.33 2.68 4.68 3.43 6.98 1.55 1.06-.87 1.61-2.01 1.66-3.37.02-.61 0-1.22 0-1.83 0-.55.15-.7.72-.7h.59c.01-.03.02-.06.03-.09zm-6.39-2.07c0-.13 0-.23 0-.34 0-.86 0-1.73 0-2.59 0-.28.09-.53.38-.58.34-.06.67-.09.97.2.42.4 1.03.36 1.41-.05.36-.39.36-.98 0-1.37-.38-.41-.99-.45-1.41-.04-.3.29-.64.27-.97.19-.15-.04-.33-.26-.35-.42-.05-.36-.03-.74-.01-1.1.02-.28.2-.44.48-.46.26-.02.48.18.52.45.01.09.01.19.02.3.99-.44 1.86-.32 2.57.52.54.64.62 1.57.17 2.27-.67 1.04-1.62 1.23-2.73.77v2.24h4.03c0-.24.02-.46 0-.68-.06-.49.13-.8.52-1.12 1.82-1.47 2.79-3.4 3.01-5.76h-.33c-.79 0-1.58-.02-2.37 0-.87.03-.87-.37-.81-.91.02-.17.16-.33.26-.48.25-.35.31-.71.11-1.1-.19-.37-.58-.59-.99-.54-.42.05-.72.28-.86.69-.14.4-.02.74.26 1.04.28.29.23.65.14.98-.1.32-.4.32-.68.32-1.15 0-2.29 0-3.44 0h-1.61c.37 1.33.18 2.11-.66 2.68-.71.48-1.64.46-2.34-.05-.79-.58-.97-1.41-.59-2.61h-2.24c.22 2.4 1.23 4.35 3.11 5.83.31.24.45.49.42.88-.02.28 0 .56 0 .84h4.04z" fill="#fff"/><path d="m110.86 146.43c.35.08.7.14 1.04.24s.47.37.37.65-.37.41-.69.29c-1.14-.42-2.36.24-2.66 1.37-.22.84.11 1.7.82 2.19.69.47 1.6.46 2.28-.02.7-.49 1.02-1.37.79-2.2-.14-.53-.06-.78.29-.87.33-.08.54.11.68.62.35 1.27-.14 2.61-1.23 3.35-1.07.72-2.51.68-3.54-.1-1.04-.79-1.46-2.15-1.05-3.39.41-1.25 1.58-2.09 2.91-2.14z" fill="#fff"/><path d="m113.43 140.91c.01-.85.69-1.51 1.54-1.5.83.01 1.49.7 1.48 1.53-.01.84-.7 1.51-1.54 1.5-.82-.01-1.49-.7-1.48-1.53zm2.01.01c0-.27-.23-.5-.5-.5-.28 0-.5.23-.5.5 0 .28.22.5.5.5.27 0 .5-.23.5-.5z" fill="#fff"/></svg>