<svg viewBox="0 0 220 200" xmlns="http://www.w3.org/2000/svg"><path d="m108.88 153.23c.03-.05.07-.11.14-.09-.05.03-.09.06-.14.09z" fill="#bcbec0"/><rect fill="#d1d3d4" height="115.52" rx="13.53" width="143.67" x="35.46" y="44.66"/><g fill="#a7a9ac"><path d="m74.62 96.04h4.59c1.54 0 2.72.31 3.54.92s1.24 1.52 1.24 2.74c0 .49-.07.92-.21 1.29s-.32.68-.54.94-.47.48-.76.66-.56.31-.84.41v.04c.2.14.43.36.67.66.25.29.52.71.84 1.23l1.85 3.11h-3.69l-2.03-3.42c-.14-.23-.26-.41-.36-.55s-.19-.24-.27-.31-.16-.12-.23-.14-.16-.04-.25-.04h-.12v4.46h-3.44v-11.99zm4.52 5.22c.5 0 .88-.12 1.12-.35.25-.23.37-.56.37-.98 0-.46-.12-.79-.37-1.02-.25-.22-.66-.33-1.23-.33h-.97v2.68z"/><path d="m86.61 96.04h3.46v11.99h-3.46z"/><path d="m92.78 111.9c-.58 0-1.04-.04-1.4-.12-.35-.08-.67-.17-.94-.26l.54-2.74c.08.04.22.08.4.13.19.05.36.07.53.07.53 0 .89-.11 1.1-.33s.31-.62.31-1.2v-11.41h3.46v11.86c0 .66-.1 1.24-.29 1.74s-.46.92-.82 1.25c-.36.34-.78.59-1.27.76s-1.03.25-1.62.25z"/><path d="m99.37 96.04h7.52v2.79h-4.14v1.8h3.65v2.59h-3.65v2.02h4.27v2.79h-7.65z"/><path d="m112.33 108.24c-.5 0-.97-.04-1.39-.12s-.79-.18-1.12-.3-.62-.25-.85-.38c-.24-.13-.43-.25-.58-.36l1.35-2.38c.07.04.18.1.32.19s.32.18.54.27.46.17.72.23c.26.07.55.1.86.1.98 0 1.48-.29 1.48-.88 0-.19-.07-.34-.21-.46-.14-.11-.33-.22-.57-.31-.24-.1-.52-.2-.83-.32s-.65-.26-1.01-.44c-.37-.18-.71-.38-1-.61s-.55-.49-.76-.78-.37-.63-.48-1.02c-.11-.38-.16-.82-.16-1.31 0-.54.1-1.03.31-1.46s.5-.8.86-1.12c.37-.31.8-.55 1.31-.72s1.07-.25 1.67-.25c.53 0 .99.04 1.39.11s.76.16 1.06.26.57.21.78.33.4.23.54.34l-1.28 2.38c-.11-.06-.24-.13-.41-.21-.16-.08-.34-.15-.55-.22-.2-.07-.41-.13-.63-.18s-.43-.07-.65-.07c-.41 0-.71.06-.91.18s-.3.33-.3.63c0 .18.05.33.16.44s.26.22.46.32.43.2.71.3.58.22.9.36c.4.18.77.37 1.11.57s.64.43.9.71.46.6.6.98.22.83.22 1.36c0 1.21-.4 2.15-1.2 2.83-.8.67-1.93 1.01-3.41 1.01zm-3.13-16.04h2.65l.94.9.94-.9h2.65l-2.36 2.95h-2.48l-2.32-2.95z"/><path d="m118.85 96.04h7.52v2.79h-4.14v1.8h3.65v2.59h-3.65v2.02h4.27v2.79h-7.65z"/><path d="m128.78 96.04h3.47l3.28 4.7c.42.61.75 1.12.99 1.54s.37.64.4.67h.04s0-.1-.02-.23c-.01-.13-.02-.29-.03-.49 0-.19-.01-.41-.02-.65s0-.48 0-.72v-4.82h3.1v11.99h-3.13l-3.67-5.17c-.44-.61-.77-1.08-.97-1.4l-.34-.59h-.04c0 .06 0 .26.03.61.02.35.03.75.03 1.21v5.35h-3.1v-11.99z"/></g><circle cx="107.3" cy="145.73" fill="#d1d3d4" r="20.84" stroke="#fff" stroke-miterlimit="10" stroke-width="2.2" transform="matrix(.16022575 -.9870804 .9870804 .16022575 -53.74 228.3)"/><path d="m126.02 133.45c-.51.6-1.12 1.15-1.69 1.68-.49.44-.95.9-1.42 1.36-2.55 2.52-5.07 5.06-7.65 7.55-1.54 1.48-3 3.03-4.56 4.49-1.28 1.2-2.5 2.46-3.74 3.69-.22.21-.35.22-.59.01-1.01-.91-1.94-1.91-2.92-2.85-2.05-1.96-4.07-3.95-6.1-5.94-.46-.45-.96-.86-1.37-1.35.87-.87 1.74-1.76 2.63-2.61.52-.5 1.21-.45 1.76.09 1.28 1.26 2.55 2.52 3.82 3.78.73.72 1.46 1.43 2.18 2.16.23.24.35.25.59 0 3.09-3.2 6.2-6.4 9.3-9.59 1.29-1.33 2.59-2.66 3.88-3.99.1-.11.2-.22.3-.34.24-.17.44-.38.62-.61.73-.94 1.53-1 2.36-.17l2.27 2.27c.12.12.22.24.33.38z" fill="#f7f7f7"/><path d="m107.8 154.28c.58-.58 2.49-2.47 3.07-3.04 4.53-4.48 9.06-8.95 13.59-13.43.1-.1.19-.13.35-.23.28.71.62 1.4.81 2.15-1.4 1.13-2.8 2.27-4.2 3.4-1.98 1.6-3.96 3.2-5.94 4.8-2 1.62-3.99 3.24-5.99 4.85-.11.09-1.36 1.24-1.7 1.49z" fill="#bcbec0"/><path d="m107.85 154.23c-.49.57-1.66.54-2.21 0-3.29-3.29-6.62-6.55-9.93-9.82-.74-.73-.74-1.34 0-2.07.09-.09.19-.16.29-.24.41.5.91.9 1.37 1.35 2.02 1.99 4.05 3.98 6.1 5.94.98.94 1.91 1.94 2.92 2.85.24.21.37.2.59-.01 1.25-1.23 2.46-2.49 3.74-3.69 1.56-1.46 3.02-3.01 4.56-4.49 2.58-2.48 5.1-5.03 7.65-7.55.47-.46 2.56-2.48 3.06-3.08.15.13.26.22.41.38.37.41.51.99.38 1.53l-.04.17c-.04.17-.13.32-.25.44-1.5 1.52-11.35 11.12-15.6 15.31-.58.58-1.16 1.16-1.74 1.74" fill="#e9eaea"/></svg>