<svg viewBox="0 0 220 200" xmlns="http://www.w3.org/2000/svg"><rect fill="#41b495" height="115.52" rx="13.53" width="143.67" x="31.5" y="42.98"/><g fill="#fff"><path d="m56.63 103.75 4.64-7.02h-4.48v-2.79h8.68v2.16l-4.66 7.04h4.79v2.79h-8.96v-2.18z"/><path d="m70.92 93.94h3.29l4.75 11.99h-3.74l-.58-1.69h-4.27l-.56 1.69h-3.47l4.57-11.99zm2.79 7.61-.65-1.89c-.1-.26-.18-.52-.24-.76-.07-.24-.12-.46-.16-.65s-.08-.35-.11-.47-.04-.19-.04-.22h-.04s-.02.1-.05.22l-.11.47c-.05.19-.11.41-.17.66-.07.25-.14.5-.22.75l-.63 1.89h2.43z"/><path d="m81.74 96.73h-3.22v-2.79h9.88v2.79h-3.22v9.2h-3.44z"/><path d="m89.1 93.94h3.71l2.07 6.32c.07.23.14.45.21.67s.12.42.17.6.09.33.12.45.04.19.04.2h.04s.02-.08.05-.21.08-.28.13-.46.1-.38.16-.6.13-.44.2-.66l1.98-6.32h3.46l-4.46 11.99h-3.24l-4.63-11.99z"/><path d="m108.29 106.15c-1.07 0-2.01-.17-2.82-.52s-1.49-.81-2.03-1.39c-.55-.58-.96-1.24-1.23-1.98-.28-.74-.41-1.51-.41-2.3s.13-1.58.41-2.33c.27-.75.67-1.41 1.21-1.99.53-.58 1.2-1.04 2.01-1.39.8-.35 1.74-.52 2.81-.52s2 .17 2.8.51 1.46.79 2 1.36c.53.56.93 1.21 1.2 1.95.26.74.4 1.5.4 2.29s-.13 1.58-.39 2.34-.65 1.43-1.17 2.02-1.18 1.06-1.97 1.41-1.72.53-2.79.53zm-.07-2.74c.52 0 .95-.09 1.3-.28s.64-.44.86-.76.37-.68.47-1.1.14-.86.14-1.32-.05-.91-.14-1.33-.24-.79-.45-1.12c-.21-.32-.49-.58-.84-.76-.35-.19-.77-.28-1.28-.28s-.96.09-1.32.27c-.37.18-.66.42-.89.73s-.39.66-.5 1.07c-.1.41-.15.85-.15 1.31s.05.92.15 1.35.26.81.49 1.14c.22.33.51.59.86.78s.78.29 1.29.29z"/><path d="m116.55 93.94h4.59c1.54 0 2.72.31 3.55.92s1.24 1.52 1.24 2.74c0 .49-.07.92-.21 1.29s-.32.68-.54.95c-.22.26-.47.48-.76.66-.28.17-.56.31-.84.4v.04c.2.14.43.36.67.66s.52.71.84 1.23l1.85 3.11h-3.69l-2.03-3.42c-.14-.23-.26-.41-.36-.55s-.19-.24-.27-.32c-.08-.07-.16-.12-.23-.14s-.16-.04-.25-.04h-.13v4.46h-3.44v-11.99zm4.52 5.22c.5 0 .88-.12 1.12-.35.25-.23.37-.56.37-.98 0-.46-.12-.79-.37-1.02-.25-.22-.66-.33-1.23-.33h-.97v2.68z"/><path d="m128.43 93.94h7.52v2.79h-4.14v1.8h3.65v2.59h-3.65v2.02h4.27v2.79h-7.65z"/><path d="m138.37 93.94h3.47l3.28 4.7c.42.61.75 1.12.99 1.54.24.41.37.64.4.67h.04s0-.1-.02-.23c-.01-.13-.02-.29-.03-.49 0-.19-.01-.41-.02-.65 0-.24 0-.48 0-.72v-4.82h3.1v11.99h-3.13l-3.67-5.17c-.44-.61-.77-1.08-.97-1.4l-.34-.59h-.04c0 .06 0 .26.03.61.02.35.03.75.03 1.21v5.35h-3.1v-11.99z"/></g><circle cx="103.33" cy="142.87" fill="#41b495" r="20.84" stroke="#fff" stroke-miterlimit="10" stroke-width="2.27" transform="matrix(.16022575 -.9870804 .9870804 .16022575 -54.24 221.98)"/><path d="m122.06 130.59c-.51.6-1.12 1.15-1.69 1.68-.49.44-.95.9-1.42 1.36-2.55 2.52-5.07 5.06-7.65 7.55-1.54 1.48-3 3.03-4.56 4.49-1.28 1.2-2.5 2.46-3.74 3.69-.22.21-.35.22-.59.01-1.01-.91-1.94-1.91-2.92-2.85-2.05-1.96-4.07-3.95-6.1-5.94-.46-.45-.96-.86-1.37-1.35.87-.87 1.74-1.76 2.63-2.61.52-.5 1.21-.45 1.76.09 1.28 1.26 2.55 2.52 3.82 3.78.73.72 1.46 1.43 2.18 2.16.23.24.35.25.59 0 3.09-3.2 6.2-6.4 9.3-9.59 1.29-1.33 2.59-2.66 3.88-3.99.1-.11.2-.22.3-.34.24-.17.44-.38.62-.61.73-.94 1.53-1 2.36-.17l2.27 2.27c.12.12.22.24.33.38z" fill="#f7f7f7"/><path d="m103.84 151.42c.58-.58 2.49-2.47 3.07-3.04 4.53-4.48 9.06-8.95 13.59-13.43.1-.1.19-.13.35-.23.28.71.62 1.4.81 2.15-1.4 1.13-2.8 2.27-4.2 3.4-1.98 1.6-3.96 3.2-5.94 4.8-2 1.62-3.99 3.24-5.99 4.85-.11.09-1.36 1.24-1.7 1.49z" fill="#38a18e"/><path d="m104.91 150.36c.03-.05.07-.11.14-.09-.05.03-.09.06-.14.09z" fill="#38a18e"/><path d="m103.88 151.37c-.49.57-1.66.54-2.21 0-3.29-3.29-6.62-6.55-9.93-9.82-.74-.73-.74-1.34 0-2.07.09-.09.19-.16.29-.24.41.5.91.9 1.37 1.35 2.02 1.99 4.05 3.98 6.1 5.94.98.94 1.91 1.94 2.92 2.85.24.21.37.2.59-.01 1.25-1.23 2.46-2.49 3.74-3.69 1.56-1.46 3.02-3.01 4.56-4.49 2.58-2.48 5.1-5.03 7.65-7.55.47-.46 2.56-2.48 3.06-3.08.15.13.26.22.41.38.37.41.51.99.38 1.53l-.04.17c-.04.17-.13.32-.25.44-1.5 1.52-11.35 11.12-15.6 15.31-.58.58-1.16 1.16-1.74 1.74" fill="#e9eaea"/></svg>